<svg width="27" height="24" viewBox="0 0 27 24" fill="none" xmlns="http://www.w3.org/2000/svg">
<rect x="0.5" y="0.5" width="26" height="23" stroke="#8C8C8C"/>
<path d="M4.848 11.576H7.872V8.28H9.152V11.576H12.176V12.84H9.152V16.152H7.872V12.84H4.848V11.576ZM14.9192 17C14.9832 16.1467 15.1326 15.2507 15.3672 14.312C15.6126 13.3627 15.9112 12.4453 16.2632 11.56C16.6152 10.664 16.9992 9.83733 17.4152 9.08C17.8419 8.312 18.2579 7.688 18.6632 7.208H13.2712V5.912H20.3273V7.144C19.9753 7.54933 19.5859 8.10933 19.1593 8.824C18.7326 9.528 18.3273 10.3227 17.9433 11.208C17.5699 12.0827 17.2446 13.0213 16.9672 14.024C16.7006 15.016 16.5352 16.008 16.4713 17H14.9192Z" fill="#8C8C8C"/>
</svg>
